<svg height="496pt" viewBox="0 0 496 496" width="496pt" xmlns="http://www.w3.org/2000/svg"><path d="m488 248c0 132.546875-107.453125 240-240 240s-240-107.453125-240-240 107.453125-240 240-240 240 107.453125 240 240zm0 0" fill="#85d3c1"/><path d="m321.28125 144c4.320312 9.761719 6.71875 20.640625 6.71875 32h-160c0-11.359375 2.398438-22.238281 6.71875-32 12.320312-28.238281 40.480469-48 73.28125-48 22.078125 0 42.078125 8.960938 56.558594 23.441406 7.042968 7.039063 12.722656 15.359375 16.722656 24.558594zm0 0" fill="#f9d48a"/><path d="m328 176c0-11.359375-2.398438-22.238281-6.71875-32h78.71875c13.28125 0 24 10.71875 24 24 0 4.398438-3.601562 8-8 8zm0 0" fill="#f9d48a"/><path d="m316.238281 17.839844c4.320313 4.480468 7.363281 10.082031 8.402344 16.558594l19.359375 109.601562h-22.71875c-4-9.199219-9.679688-17.519531-16.722656-24.558594-14.480469-14.480468-34.480469-23.441406-56.558594-23.441406-32.800781 0-60.960938 19.761719-73.28125 48h-22.71875l19.359375-109.601562c.960937-6 3.679687-11.277344 7.441406-15.597657 5.917969-6.640625 14.558594-10.800781 24.078125-10.800781h90.242188c9.039062 0 17.277344 3.761719 23.117187 9.839844zm0 0" fill="#ff958a"/><path d="m174.71875 144c-4.320312 9.761719-6.71875 20.640625-6.71875 32h-88c-4.398438 0-8-3.601562-8-8 0-6.640625 2.71875-12.640625 7.039062-16.960938 4.320313-4.320312 10.320313-7.039062 16.960938-7.039062zm0 0" fill="#f9d48a"/><path d="m416 413.441406v5.839844c-43.28125 42.480469-102.558594 68.71875-168 68.71875-7.679688 0-15.28125-.398438-22.800781-1.039062 41.679687-36.800782 75.921875-81.28125 100.800781-131.039063l1.121094-2.160156 52.558594 13.117187c21.359374 5.359375 36.320312 24.5625 36.320312 46.5625zm0 0" fill="#ff958a"/><path d="m224.71875 439.601562c-13.839844 14.238282-29.199219 27.039063-45.679688 38.320313-37.757812-11.28125-71.597656-31.683594-99.039062-58.640625v-5.839844c0-22 14.960938-41.203125 36.320312-46.5625l52.558594-13.117187 1.121094 2.160156c14.960938 30 33.359375 58 54.71875 83.679687zm0 0" fill="#ff958a"/><path d="m224.71875 439.601562c8.242188-8.480468 16.082031-17.441406 23.28125-26.882812 14.160156-18.320312 26.238281-38.238281 35.839844-59.519531l4.160156-9.199219 39.121094 9.761719-1.121094 2.160156c-24.878906 49.757813-59.121094 94.238281-100.800781 131.039063-15.917969-1.519532-31.359375-4.5625-46.160157-9.039063 16.480469-11.28125 31.839844-24.082031 45.679688-38.320313zm0 0" fill="#f9d48a"/><path d="m248 412.71875c-7.199219 9.441406-15.039062 18.402344-23.28125 26.882812-21.359375-25.679687-39.757812-53.679687-54.71875-83.679687l-1.121094-2.160156 39.121094-9.761719 4.160156 9.199219c9.679688 21.28125 21.761719 41.199219 35.839844 59.519531zm0 0" fill="#f9d48a"/><g fill="#f5f7fa"><path d="m288 312v32l-4.160156 9.199219c-9.601563 21.28125-21.679688 41.199219-35.839844 59.519531-14.078125-18.320312-26.160156-38.238281-35.839844-59.519531l-4.160156-9.199219v-32l1.199219-2.078125c11.519531 6.476563 24.722656 10.078125 38.800781 10.078125s27.28125-3.601562 38.800781-10.078125zm0 0"/><path d="m328 240v-56c17.679688 0 32 14.320312 32 32s-14.320312 32-32 32h-.398438c.238282-2.640625.398438-5.28125.398438-8zm0 0"/><path d="m328 184v56c0 2.71875-.160156 5.359375-.398438 8-2.640624 26.71875-18.480468 49.519531-40.800781 61.921875-11.519531 6.476563-24.722656 10.078125-38.800781 10.078125s-27.28125-3.601562-38.800781-10.078125c-6.558594-3.601563-12.480469-8.082031-17.757813-13.363281-12.722656-12.71875-21.203125-29.679688-23.042968-48.558594-.238282-2.640625-.398438-5.28125-.398438-8v-64h160zm0 0"/><path d="m168 184v56c0 2.71875.160156 5.359375.398438 8h-.398438c-17.679688 0-32-14.320312-32-32s14.320312-32 32-32zm0 0"/></g><path d="m248 296c17.648438 0 32-14.351562 32-32h-16c0 8.824219-7.175781 16-16 16s-16-7.175781-16-16h-16c0 17.648438 14.351562 32 32 32zm0 0" fill="#232323"/><path d="m216 216c0 4.417969-3.582031 8-8 8s-8-3.582031-8-8 3.582031-8 8-8 8 3.582031 8 8zm0 0" fill="#232323"/><path d="m296 216c0 4.417969-3.582031 8-8 8s-8-3.582031-8-8 3.582031-8 8-8 8 3.582031 8 8zm0 0" fill="#232323"/><path d="m320.351562 10.808594c-7.191406-6.695313-16.734374-10.808594-27.199218-10.808594h-90.304688c-10.398437 0-19.902344 4.0625-27.078125 10.695312-105.136719 31.953126-175.769531 127.289063-175.769531 237.304688 0 113.296875 76.398438 209.023438 180.367188 238.542969l.074218.113281c.03125-.023438.054688-.039062.085938-.0625 21.464844 6.078125 44.082031 9.40625 67.472656 9.40625 136.742188 0 248-111.257812 248-248 0-108.496094-72.128906-205.632812-175.648438-237.191406zm159.648438 237.191406c0 58.480469-21.792969 111.9375-57.632812 152.785156-4.679688-20.113281-20.054688-36.449218-40.792969-41.632812l-85.574219-21.398438v-24.097656c19.960938-13.046875 34.265625-33.96875 38.574219-58.328125 18.921875-3.152344 33.425781-19.527344 33.425781-39.328125 0-13.128906-6.449219-24.703125-16.246094-32h64.246094c8.824219 0 16-7.175781 16-16 0-17.648438-14.351562-32-32-32h-49.289062l-18.167969-102.953125c-.078125-.4375-.246094-.832031-.335938-1.253906 87.914063 34.335937 147.792969 120.574219 147.792969 216.207031zm-200 94.273438-3.472656 7.636718c-7.910156 17.402344-17.542969 33.824219-28.527344 49.226563-11.03125-15.472657-20.664062-31.9375-28.527344-49.226563l-3.472656-7.636718v-20.386719c9.9375 3.898437 20.703125 6.113281 32 6.113281s22.0625-2.214844 32-6.113281zm-115.28125 20.789062c13.738281 26.859375 30.289062 52.257812 49.226562 75.753906-11.257812 10.992188-23.417968 21.085938-36.386718 30.214844-33.894532-10.824219-64.398438-29.261719-89.558594-53.269531v-2.28125c0-18.382813 12.464844-34.34375 30.304688-38.808594zm60.449219 64.160156c-16.953125-21.238281-31.863281-44.078125-44.441407-68.152344l22.753907-5.6875 1.429687 3.160157c8.96875 19.722656 20.105469 38.449219 32.96875 55.890625-4.070312 5.070312-8.3125 9.992187-12.710937 14.789062zm-65.167969-188.695312c-9.289062-3.3125-16-12.113282-16-22.527344s6.710938-19.214844 16-22.527344zm3.40625-86.527344c-1.460938 5.160156-2.503906 10.496094-3.007812 16h-80.398438c0-8.824219 7.175781-16 16-16zm92.59375-24v-23.527344c33.3125 3.703125 59.824219 30.214844 63.527344 63.527344h-63.527344v-24h-16v24h-63.527344c3.703125-33.3125 30.214844-59.824219 63.527344-63.527344v23.527344zm76.59375 24h67.40625c8.824219 0 16 7.175781 16 16h-80.40625c-.496094-5.503906-1.539062-10.839844-3-16zm3.40625 41.472656c9.289062 3.3125 16 12.113282 16 22.527344s-6.710938 19.214844-16 22.527344zm-160-9.472656h144v56c0 39.695312-32.304688 72-72 72s-72-32.304688-72-72zm26.847656-168h90.304688c11.664062 0 21.609375 8.335938 23.632812 19.832031l17.679688 100.167969h-8.175782c-14.601562-28.449219-44.167968-48-78.289062-48s-63.6875 19.550781-78.289062 48h-8.175782l17.679688-100.167969c2.023437-11.496093 11.960937-19.832031 23.632812-19.832031zm-39.046875 15.777344c-.089843.429687-.265625.832031-.34375 1.269531l-18.167969 102.953125h-49.289062c-17.648438 0-32 14.351562-32 32 0 8.824219 7.175781 16 16 16h64.246094c-9.796875 7.296875-16.246094 18.871094-16.246094 32 0 19.800781 14.503906 36.175781 33.425781 39.335938 4.300781 24.359374 18.613281 45.273437 38.574219 58.328124v24.097657l-85.585938 21.390625c-20.734374 5.183594-36.109374 21.519531-40.789062 41.632812-35.832031-40.847656-57.625-94.304687-57.625-152.785156 0-96.992188 58.710938-181.761719 147.800781-216.222656zm127.289063 324.75 1.429687-3.152344 22.792969 5.695312c-23.632812 45.25-54.816406 85.402344-92.863281 119.488282-8.464844-.925782-16.785157-2.34375-24.953125-4.160156 40.3125-30.984376 72.457031-71.367188 93.59375-117.871094zm-46.464844 123.382812c35.261719-33.886718 64.320312-73.125 86.671875-116.839844l46.398437 11.601563c17.839844 4.464844 30.304688 20.417969 30.304688 38.808594v2.28125c-41.664062 39.75-98.007812 64.238281-160 64.238281-1.128906 0-2.246094-.070312-3.375-.089844zm0 0" fill="#232323"/></svg>